<svg xmlns="http://www.w3.org/2000/svg" width="135" height="180">
  <!--- attributtion and license -->
  <desc>
    Chess piece definitions derived from Wikimedia Commons images by Colin M.L. Burnett.
    Refactored by Geert Bosch to reduce repetition and allow easier styling changes.
    See https://en.wikipedia.org/wiki/User:Cburnett/GFDL_images/Chess. CC BY-SA 3.0 license.
  </desc>
  <style>
    .outline {
      stroke: #fff;
      stroke-width: 3;
    }

    .piece {
      stroke: #000;
      stroke-width: 1.5;
      stroke-linecap: round;
      stroke-linejoin: round;
    }

    .paper-board {
      fill: url(#hatch2x2);
    }

    .green-board {
      fill: url(#green2x2);
    }

    .brown-board {
      fill: url(#brown2x2);
    }
  </style>
  <defs>
    <!-- king -->
    <g id="k45g1">
      <path d="M22.5 11.63V6M20 8h5M22.5 25s4.5-7.5 3-10.5c0 0-1-2.5-3-2.5s-3 2.5-3 2.5c-1.5 3 3 10.5 3 10.5" />
      <path
        d="M12.5 37c5.5 3.5 14.5 3.5 20 0v-7s9-4.5 6-10.5c-4-6.5-13.5-3.5-16 4V27v-3.5c-2.5-7.5-12-10.5-16-4-3 6 6 10.5 6 10.5v7" />
    </g>
    <g id="k45g2">
      <path
        d="M32 29.5s8.5-4 6.03-9.65C34.15 14 25 18 22.5 24.5v2.1-2.1C20 18 10.85 14 6.97 19.85 4.5 25.5 13 29.5 13 29.5" />
      <path id="k45p1" d="M12.5 30c5.5-3 14.5-3 20 0m-20 3.5c5.5-3 14.5-3 20 0m-20 3.5c5.5-3 14.5-3 20 0" />
    </g>
    <g id="k" class="piece">
      <use href="#k45g1" class="outline" />
      <use href="#k45g1" />
      <use href="#k45g2" stroke="#fff" />
    </g>
    <g id="K" class="piece">
      <use href="#k45g1" class="outline" />
      <use href="#k45g1" fill="#fff" />
      <use href="#k45p1" fill="#fff" />
    </g>

    <!-- queen -->
    <g id="q45g1">
      <path
        d="M9 26c8.5-1.5 21-1.5 27 0l2.5-12.5L31 25l-.3-14.1-5.2 13.6-3-14.5-3 14.5-5.2-13.6L14 25 6.5 13.5 9 26z" />
      <path
        d="M9 26c0 2 1.5 2 2.5 4 1 1.5 1 1 .5 3.5-1.5 1-1 2.5-1 2.5-1.5 1.5 0 2.5 0 2.5 6.5 1 16.5 1 23 0 0 0 1.5-1 0-2.5 0 0 .5-1.5-1-2.5-.5-2.5-.5-2 .5-3.5 1-2 2.5-2 2.5-4-8.5-1.5-18.5-1.5-27 0z" />
      <path d="M11.5 30c3.5-1 18.5-1 22 0 M12 33.5c6-1 15-1 21 0" />
      <circle cx="6" cy="12" r="2" />
      <circle cx="14" cy="9" r="2" />
      <circle cx="22.5" cy="8" r="2" />
      <circle cx="31" cy="9" r="2" />
      <circle cx="39" cy="12" r="2" />
    </g>
    <g id="q45g2">
      <use href="#q45g1" />
      <path d="M11 38.5a35 35 1 0022 0" />
    </g>
    <path id="q45p1" d="M11 29a35 35 1 0123 0M12.5 31.5h20M11.5 34.5a35 35 1 0022 0M10.5 37.5a35 35 1 0024 0" />
    <g id="q" class="piece">
      <use href="#q45g2" class="outline" />
      <use href="#q45g2" />
      <use href="#q45p1" stroke="#fff" />
    </g>
    <g id="Q" class="piece">
      <use href="#q45g1" class="outline" />
      <use href="#q45g1" fill="#fff" />
    </g>

    <!-- rook -->
    <path id="r45p1" d="M9 39.3h27v-3H9v3zM12.5 32.3l1.5-2.5h17l1.5 2.5h-20zM12 36.3v-4h21v4H12z
      M14 29.8v-13h17v13H14z
      M14 16.8l-3-2.5h23l-3 2.5H14zM11 14.3v-5h4v2h5v-2h5v2h5v-2h4v5H11z" />
    <path id="r45p2" d="M12 35.8h21M13 31.8h19M14 29.8h17M14 16.8h17M11 14.3h23" />
    <g id="r45g1">
      <path d="M9 39.3h27v-3H9v3zM12 36.3v-4h21v4H12zM11 14.3v-5h4v2h5v-2h5v2h5v-2h4v5" />
      <path d="M34 14.3l-3 3H14l-3-3" />
      <path d="M31 17.3v12.5H14V17.3" />
      <path d="M31 29.8l1.5 2.5h-20l1.5-2.5" />
      <path d="M11 14.3h23" />
    </g>
    <g id="r" class="piece">
      <use href="#r45p1" class="outline" />
      <use href="#r45p1" />
      <use href="#r45p2" stroke="#fff" />
    </g>
    <g id="R" class="piece">
      <use href="#r45g1" class="outline" />
      <use href="#r45g1" fill="#fff" />
    </g>

    <!-- bishop -->
    <g id="b45g1">
      <use href="#b45p1" />
      <path id="b45p1"
        d="M9 36.6c3.39-.97 10.11.43 13.5-2 3.39 2.43 10.11 1.03 13.5 2 0 0 1.65.54 3 2-.68.97-1.65.99-3 .5-3.39-.97-10.11.46-13.5-1-3.39 1.46-10.11.03-13.5 1-1.35.49-2.32.47-3-.5 1.35-1.46 3-2 3-2z M15 32.6c2.5 2.5 12.5 2.5 15 0 .5-1.5 0-2 0-2 0-2.5-2.5-4-2.5-4 5.5-1.5 6-11.5-5-15.5-11 4-10.5 14-5 15.5 0 0-2.5 1.5-2.5 4 0 0-.5.5 0 2z M25 8.6a2.5 2.5 0 11-5 0 2.5 2.5 0 115 0z" />
      <path id="b45p2" d="M17.5 26.6h10m-12.5 4h15m-7.5-14.5v5M20 18.6h5" />
    </g>
    <g id="b" class="piece">
      <use href="#b45p1" class="outline" />
      <use href="#b45p1" />
      <use href="#b45p2" stroke="#fff" />
    </g>
    <g id="B" class="piece">
      <use href="#b45g1" class="outline" />
      <use href="#b45g1" fill="#fff" />
    </g>

    <!-- knight -->
    <g id="n45g1">
      <path d="M22 10.3c10.5 1 16.5 8 16 29H15c0-9 10-6.5 8-21" />
      <path
        d="M24 18.3c.38 2.91-5.55 7.37-8 9-3 2-2.82 4.34-5 4-1.042-.94 1.41-3.04 0-3-1 0 .19 1.23-1 2-1 0-4.003 1-4-4 0-2 6-12 6-12s1.89-1.9 2-3.5c-.73-.994-.5-2-.5-3 1-1 3 2.5 3 2.5h2s.78-1.992 2.5-3c1 0 1 3 1 3" />
    </g>
    <g id="n45g2">
      <path id="n45p1"
        d="M9.5 25.8a.5.5 0 11-1 0 .5.5 0 111 0z M14.933 16.05a.5 1.5 30 11-.866-.5.5 1.5 30 11.866.5z" />
      <path
        d="M24.55 10.7l-.45 1.45.5.15c3.15 1 5.65 2.49 7.9 6.75s3.25 10.31 2.75 20.25l-.05.5h2.25l.05-.5c.5-10.06-.88-16.85-3.25-21.34-2.37-4.49-5.79-6.64-9.19-7.16l-.51-.1z"
        fill="#fff" stroke="none" />
    </g>
    <g id="n" class="piece">
      <use href="#n45g1" class="outline" />
      <use href="#n45g1" />
      <use href="#n45g2" fill="#fff" stroke="#fff" />
    </g>
    <g id="N" class="piece">
      <use href="#n45g1" class="outline" />
      <use href="#n45g1" fill="#fff" />
      <use href="#n45p1" fill="#000" />
    </g>

    <!-- pawn -->
    <path id="p45p1"
      d="M22.5 9c-2.21 0-4 1.79-4 4 0 .89.29 1.71.78 2.38C17.33 16.5 16 18.59 16 21c0 2.03.94 3.84 2.41 5.03-3 1.06-7.41 5.55-7.41 13.47h23c0-7.92-4.41-12.41-7.41-13.47 1.47-1.19 2.41-3 2.41-5.03 0-2.41-1.33-4.5-3.28-5.62.49-.67.78-1.49.78-2.38 0-2.21-1.79-4-4-4z" />
    <g id="p" class="piece">
      <use href="#p45p1" class="outline" />
      <use href="#p45p1" />
    </g>
    <g id="P" class="piece">
      <use href="#p45p1" class="outline" />
      <use href="#p45p1" fill="#fff" />
    </g>

    <!-- board -->
    <path id="lsq" d="M0 0h45v90h45V45H0z" />
    <path id="dsq" d="M0 45v45h45V0h45v45z" />
    <pattern id="hatch" width="4.89" height="9" patternTransform="rotate(45 0 0)" patternUnits="userSpaceOnUse">
      <line x1="0" y1="0" x2="0" y2="10" style="stroke:black; stroke-width:2" />
    </pattern>
    <pattern id="hatch2x2" width="90" height="90" patternUnits="userSpaceOnUse">
      <use href="#lsq" fill="url(#hatch)" />
    </pattern>
    <pattern id="green2x2" width="90" height="90" patternUnits="userSpaceOnUse">
      <use href="#lsq" fill="#eec" />
      <use href="#dsq" fill="#795" />
    </pattern>
    <pattern id="brown2x2" width="90" height="90" patternUnits="userSpaceOnUse">
      <use href="#lsq" fill="#edb" />
      <use href="#dsq" fill="#b86" />
    </pattern>
    <rect id="chessboard" width="100%" height="100%" />
  </defs>

  <!-- test all pieces on a small board -->
  <use href="#chessboard" class="brown-board" />
  <use href="#k" x="0" />
  <use href="#K" x="0" y="90" />
  <use href="#q" x="45" />
  <use href="#Q" x="45" y="90" />
  <use href="#r" x="90" />
  <use href="#R" x="90" y="90" />
  <use href="#b" x="0" y="45" />
  <use href="#B" x="0" y="135" />
  <use href="#n" x="45" y="45" />
  <use href="#N" x="45" y="135" />
  <use href="#p" x="90" y="45" />
  <use href="#P" x="90" y="135" />
</svg>